<svg id="visual" viewBox="0 0 900 600" width="900" height="600" xmlns="http://www.w3.org/2000/svg" xmlns:xlink="http://www.w3.org/1999/xlink" version="1.1"><rect x="0" y="0" width="900" height="600" fill="#ffffff"></rect><path d="M0 505L21.5 499.7C43 494.3 86 483.7 128.8 480.5C171.7 477.3 214.3 481.7 257.2 484C300 486.3 343 486.7 385.8 485.5C428.7 484.3 471.3 481.7 514.2 478.8C557 476 600 473 642.8 476.7C685.7 480.3 728.3 490.7 771.2 491.3C814 492 857 483 878.5 478.5L900 474L900 601L878.5 601C857 601 814 601 771.2 601C728.3 601 685.7 601 642.8 601C600 601 557 601 514.2 601C471.3 601 428.7 601 385.8 601C343 601 300 601 257.2 601C214.3 601 171.7 601 128.8 601C86 601 43 601 21.5 601L0 601Z" fill="#fa7268"></path><path d="M0 514L21.5 509.5C43 505 86 496 128.8 491.7C171.7 487.3 214.3 487.7 257.2 487.3C300 487 343 486 385.8 486.7C428.7 487.3 471.3 489.7 514.2 488.8C557 488 600 484 642.8 488.7C685.7 493.3 728.3 506.7 771.2 510C814 513.3 857 506.7 878.5 503.3L900 500L900 601L878.5 601C857 601 814 601 771.2 601C728.3 601 685.7 601 642.8 601C600 601 557 601 514.2 601C471.3 601 428.7 601 385.8 601C343 601 300 601 257.2 601C214.3 601 171.7 601 128.8 601C86 601 43 601 21.5 601L0 601Z" fill="#f8695e"></path><path d="M0 545L21.5 540.2C43 535.3 86 525.7 128.8 520.2C171.7 514.7 214.3 513.3 257.2 512.2C300 511 343 510 385.8 508.3C428.7 506.7 471.3 504.3 514.2 506.3C557 508.3 600 514.7 642.8 519.2C685.7 523.7 728.3 526.3 771.2 524.5C814 522.7 857 516.3 878.5 513.2L900 510L900 601L878.5 601C857 601 814 601 771.2 601C728.3 601 685.7 601 642.8 601C600 601 557 601 514.2 601C471.3 601 428.7 601 385.8 601C343 601 300 601 257.2 601C214.3 601 171.7 601 128.8 601C86 601 43 601 21.5 601L0 601Z" fill="#f65f53"></path><path d="M0 545L21.5 546.8C43 548.7 86 552.3 128.8 550.5C171.7 548.7 214.3 541.3 257.2 537.3C300 533.3 343 532.7 385.8 532.5C428.7 532.3 471.3 532.7 514.2 533.2C557 533.7 600 534.3 642.8 539.3C685.7 544.3 728.3 553.7 771.2 554C814 554.3 857 545.7 878.5 541.3L900 537L900 601L878.5 601C857 601 814 601 771.2 601C728.3 601 685.7 601 642.8 601C600 601 557 601 514.2 601C471.3 601 428.7 601 385.8 601C343 601 300 601 257.2 601C214.3 601 171.7 601 128.8 601C86 601 43 601 21.5 601L0 601Z" fill="#f45549"></path><path d="M0 554L21.5 557.8C43 561.7 86 569.3 128.8 571.2C171.7 573 214.3 569 257.2 568.3C300 567.7 343 570.3 385.8 573C428.7 575.7 471.3 578.3 514.2 577C557 575.7 600 570.3 642.8 568.5C685.7 566.7 728.3 568.3 771.2 570.5C814 572.7 857 575.3 878.5 576.7L900 578L900 601L878.5 601C857 601 814 601 771.2 601C728.3 601 685.7 601 642.8 601C600 601 557 601 514.2 601C471.3 601 428.7 601 385.8 601C343 601 300 601 257.2 601C214.3 601 171.7 601 128.8 601C86 601 43 601 21.5 601L0 601Z" fill="#f14a3e"></path></svg>