<svg id="visual" viewBox="0 0 900 600" width="900" height="600" xmlns="http://www.w3.org/2000/svg" xmlns:xlink="http://www.w3.org/1999/xlink" version="1.1"><rect x="0" y="0" width="900" height="600" fill="#fff"></rect><path d="M0 396L21.5 396.2C43 396.3 86 396.7 128.8 396C171.7 395.3 214.3 393.7 257.2 392C300 390.3 343 388.7 385.8 394.8C428.7 401 471.3 415 514.2 414.7C557 414.3 600 399.7 642.8 392.8C685.7 386 728.3 387 771.2 388C814 389 857 390 878.5 390.5L900 391L900 601L878.5 601C857 601 814 601 771.2 601C728.3 601 685.7 601 642.8 601C600 601 557 601 514.2 601C471.3 601 428.7 601 385.8 601C343 601 300 601 257.2 601C214.3 601 171.7 601 128.8 601C86 601 43 601 21.5 601L0 601Z" fill="#fa7268"></path><path d="M0 471L21.5 464.8C43 458.7 86 446.3 128.8 441.2C171.7 436 214.3 438 257.2 444.2C300 450.3 343 460.7 385.8 461.8C428.7 463 471.3 455 514.2 456C557 457 600 467 642.8 461.3C685.7 455.7 728.3 434.3 771.2 424.2C814 414 857 415 878.5 415.5L900 416L900 601L878.5 601C857 601 814 601 771.2 601C728.3 601 685.7 601 642.8 601C600 601 557 601 514.2 601C471.3 601 428.7 601 385.8 601C343 601 300 601 257.2 601C214.3 601 171.7 601 128.8 601C86 601 43 601 21.5 601L0 601Z" fill="#f7695e"></path><path d="M0 507L21.5 507.8C43 508.7 86 510.3 128.8 508.3C171.7 506.3 214.3 500.7 257.2 500.3C300 500 343 505 385.8 503.7C428.7 502.3 471.3 494.7 514.2 492C557 489.3 600 491.7 642.8 488.3C685.7 485 728.3 476 771.2 481C814 486 857 505 878.5 514.5L900 524L900 601L878.5 601C857 601 814 601 771.2 601C728.3 601 685.7 601 642.8 601C600 601 557 601 514.2 601C471.3 601 428.7 601 385.8 601C343 601 300 601 257.2 601C214.3 601 171.7 601 128.8 601C86 601 43 601 21.5 601L0 601Z" fill="#f45f54"></path><path d="M0 513L21.5 519.8C43 526.7 86 540.3 128.8 540.5C171.7 540.7 214.3 527.3 257.2 519.8C300 512.3 343 510.7 385.8 514.5C428.7 518.3 471.3 527.7 514.2 534.3C557 541 600 545 642.8 543C685.7 541 728.3 533 771.2 533.2C814 533.3 857 541.7 878.5 545.8L900 550L900 601L878.5 601C857 601 814 601 771.2 601C728.3 601 685.7 601 642.8 601C600 601 557 601 514.2 601C471.3 601 428.7 601 385.8 601C343 601 300 601 257.2 601C214.3 601 171.7 601 128.8 601C86 601 43 601 21.5 601L0 601Z" fill="#f1554a"></path></svg>